<svg xmlns="http://www.w3.org/2000/svg" viewBox="0 0 420 100" role="img" aria-labelledby="title desc"><title id="title">Charity Chepkirui</title><desc id="desc">CC monogram with Charity Chepkirui name</desc><defs><linearGradient id="g" x1="0" y1="0" x2="1" y2="1"><stop offset="0" stop-color="#f5f8ff"/><stop offset=".48" stop-color="#48a2ff"/><stop offset="1" stop-color="#0872ee"/></linearGradient></defs><g fill="none" stroke="url(#g)"><circle cx="48" cy="50" r="36" stroke-width="2" opacity=".35"/><path d="M62 29c-5-6-12-9-20-9-17 0-30 13-30 30s13 30 30 30c8 0 15-3 20-9" stroke-width="5" stroke-linecap="round"/><path d="M72 29c-5-6-12-9-20-9-17 0-30 13-30 30s13 30 30 30c8 0 15-3 20-9" stroke-width="3" stroke-linecap="round" opacity=".85"/></g><text x="105" y="47" fill="#f4f7ff" font-family="Arial,Helvetica,sans-serif" font-size="27" font-weight="700" letter-spacing="7">CHARITY</text><text x="107" y="74" fill="#9eb8d9" font-family="Arial,Helvetica,sans-serif" font-size="15" font-weight="500" letter-spacing="6">CHEPKIRUI</text><path d="M107 84h55" stroke="#248cff" stroke-width="2" stroke-linecap="round"/><path d="M174 84h18" stroke="#248cff" stroke-width="2" stroke-linecap="round" opacity=".45"/></svg>